<svg xmlns="http://www.w3.org/2000/svg" viewBox="0 0 460 100">
  <g fill="none" stroke="#436578" stroke-width="2.5" stroke-linecap="round" stroke-linejoin="round">
    <path d="M5,15 C12,21 32,28 39,31" />
    <path d="M9,13 C17,19 35,26 42,28" opacity="0.6" />
    
    <path d="M99,15 C92,21 72,28 65,31" />
    <path d="M95,13 C87,19 69,26 62,28" opacity="0.6" />
    
    <path d="M21,45 L23,71" />
    <path d="M25,48 L24,67" opacity="0.5" />
    
    <path d="M83,45 L81,71" />
    <path d="M79,48 L80,67" opacity="0.5" />
    
    <path d="M9,101 C27,85 77,85 95,101" stroke-width="3" />
    <path d="M12,98 C32,88 72,88 92,98" opacity="0.4" />
  </g>

  <style>
    .font-main { font-family: 'Segoe UI', Tahoma, Geneva, Verdana, sans-serif; font-weight: bold; }
    .dark { fill: #436578; }
    .medium { fill: #5b7a8c; }
  </style>
  
  <text x="120" y="35" class="font-main dark" font-size="28">Afdeling</text>
  <text x="120" y="85" class="font-main medium" font-size="42">Publieks<tspan class="dark">frustratie</tspan></text>
</svg>
